<mxfile host="Electron" modified="2024-06-20T09:32:52.935Z" agent="Mozilla/5.0 (Macintosh; Intel Mac OS X 10_15_7) AppleWebKit/537.36 (KHTML, like Gecko) draw.io/24.5.3 Chrome/124.0.6367.207 Electron/30.0.6 Safari/537.36" etag="RzWzlDtlIqA7YiTVo5pi" version="24.5.3" type="device">
  <diagram id="Zr7V08PuUnPLeEfGgtiN" name="Page-1">
    <mxGraphModel dx="1354" dy="796" grid="1" gridSize="10" guides="1" tooltips="1" connect="1" arrows="1" fold="1" page="1" pageScale="1" pageWidth="1169" pageHeight="827" math="0" shadow="0">
      <root>
        <mxCell id="0" />
        <mxCell id="1" parent="0" />
        <mxCell id="xrA78gVe459-WXCx-Xu2-7" style="edgeStyle=orthogonalEdgeStyle;rounded=0;orthogonalLoop=1;jettySize=auto;html=1;entryX=0.5;entryY=1;entryDx=0;entryDy=0;" parent="1" target="j-qPLIsldFIht5pisLqD-18" edge="1">
          <mxGeometry relative="1" as="geometry">
            <mxPoint x="209" y="201.17" as="sourcePoint" />
          </mxGeometry>
        </mxCell>
        <mxCell id="xrA78gVe459-WXCx-Xu2-14" value="TextSignal" style="edgeLabel;html=1;align=center;verticalAlign=middle;resizable=0;points=[];" parent="xrA78gVe459-WXCx-Xu2-7" vertex="1" connectable="0">
          <mxGeometry x="-0.1649" y="4" relative="1" as="geometry">
            <mxPoint x="-10" y="-4" as="offset" />
          </mxGeometry>
        </mxCell>
        <mxCell id="j-qPLIsldFIht5pisLqD-18" value="Chat UI" style="shape=module;align=left;spacingLeft=20;align=center;verticalAlign=top;" parent="1" vertex="1">
          <mxGeometry x="19" y="114.99999999999999" width="100" height="50" as="geometry" />
        </mxCell>
        <mxCell id="nK11tMXY5rMaSpCdiYOy-11" style="edgeStyle=orthogonalEdgeStyle;rounded=0;orthogonalLoop=1;jettySize=auto;html=1;exitX=0;exitY=0;exitDx=0;exitDy=35;exitPerimeter=0;" edge="1" parent="1" source="j-qPLIsldFIht5pisLqD-43">
          <mxGeometry relative="1" as="geometry">
            <mxPoint x="209" y="150.17" as="targetPoint" />
          </mxGeometry>
        </mxCell>
        <mxCell id="nK11tMXY5rMaSpCdiYOy-14" value="&lt;span style=&quot;color: rgba(0, 0, 0, 0); font-family: monospace; font-size: 0px; text-align: start; background-color: rgb(251, 251, 251);&quot;&gt;%3CmxGraphModel%3E%3Croot%3E%3CmxCell%20id%3D%220%22%2F%3E%3CmxCell%20id%3D%221%22%20parent%3D%220%22%2F%3E%3CmxCell%20id%3D%222%22%20value%3D%22%22%20style%3D%22endArrow%3Dnone%3Bhtml%3D1%3Brounded%3D0%3B%22%20edge%3D%221%22%20parent%3D%221%22%3E%3CmxGeometry%20width%3D%2250%22%20height%3D%2250%22%20relative%3D%221%22%20as%3D%22geometry%22%3E%3CmxPoint%20x%3D%22434%22%20y%3D%22400%22%20as%3D%22sourcePoint%22%2F%3E%3CmxPoint%20x%3D%22434%22%20y%3D%22160%22%20as%3D%22targetPoint%22%2F%3E%3C%2FmxGeometry%3E%3C%2FmxCell%3E%3C%2Froot%3E%3C%2FmxGraphModel%3E&lt;/span&gt;&lt;span style=&quot;color: rgba(0, 0, 0, 0); font-family: monospace; font-size: 0px; text-align: start; background-color: rgb(251, 251, 251);&quot;&gt;%3CmxGraphModel%3E%3Croot%3E%3CmxCell%20id%3D%220%22%2F%3E%3CmxCell%20id%3D%221%22%20parent%3D%220%22%2F%3E%3CmxCell%20id%3D%222%22%20value%3D%22%22%20style%3D%22endArrow%3Dnone%3Bhtml%3D1%3Brounded%3D0%3B%22%20edge%3D%221%22%20parent%3D%221%22%3E%3CmxGeometry%20width%3D%2250%22%20height%3D%2250%22%20relative%3D%221%22%20as%3D%22geometry%22%3E%3CmxPoint%20x%3D%22434%22%20y%3D%22400%22%20as%3D%22sourcePoint%22%2F%3E%3CmxPoint%20x%3D%22434%22%20y%3D%22160%22%20as%3D%22targetPoint%22%2F%3E%3C%2FmxGeometry%3E%3C%2FmxCell%3E%3C%2Froot%3E%3C%2FmxGraphModel%3E&lt;/span&gt;&lt;span style=&quot;color: rgba(0, 0, 0, 0); font-family: monospace; font-size: 0px; text-align: start; background-color: rgb(251, 251, 251);&quot;&gt;3CmxGraphModel%3E%3Croot%3E%3CmxCell%20id%3D%220%22%2F%3E%3CmxCell%20id%3D%221%22%20parent%3D%220%22%2F%3E%3CmxCell%20id%3D%222%22%20value%3D%22%22%20style%3D%22endArrow%3Dnone%3Bhtml%3D1%3Brounded%3D0%3B%22%20edge%3D%221%22%20parent%3D%221%22%3E%3CmxGeometry%20width%3D%2250%22%20height%3D%2250%22%20relative%3D%221%22%20as%3D%22geometry%22%3E%3CmxPoint%20x%3D%22434%22%20y%3D%22400%22%20as%3D%22sourcePoint%22%2F%3E%3CmxPoint%20x%3D%22434%22%20y%3D%22160%22%20as%3D%22targetPoint%22%2F%3E%3C%2FmxGeometry%3E%3C%2FmxCell%3E%3C%2Froot%3E%3C%2FmxGraphModel%3E&lt;/span&gt;" style="edgeLabel;html=1;align=center;verticalAlign=middle;resizable=0;points=[];" vertex="1" connectable="0" parent="nK11tMXY5rMaSpCdiYOy-11">
          <mxGeometry x="-0.1347" y="1" relative="1" as="geometry">
            <mxPoint as="offset" />
          </mxGeometry>
        </mxCell>
        <mxCell id="nK11tMXY5rMaSpCdiYOy-15" value="TextSignal" style="edgeLabel;html=1;align=center;verticalAlign=middle;resizable=0;points=[];" vertex="1" connectable="0" parent="nK11tMXY5rMaSpCdiYOy-11">
          <mxGeometry x="-0.0954" y="-1" relative="1" as="geometry">
            <mxPoint x="-3" as="offset" />
          </mxGeometry>
        </mxCell>
        <mxCell id="nK11tMXY5rMaSpCdiYOy-12" style="edgeStyle=orthogonalEdgeStyle;rounded=0;orthogonalLoop=1;jettySize=auto;html=1;entryX=0;entryY=0;entryDx=0;entryDy=15;entryPerimeter=0;" edge="1" parent="1" target="j-qPLIsldFIht5pisLqD-43">
          <mxGeometry relative="1" as="geometry">
            <mxPoint x="189" y="130.17" as="sourcePoint" />
          </mxGeometry>
        </mxCell>
        <mxCell id="nK11tMXY5rMaSpCdiYOy-13" value="TextSignal" style="edgeLabel;html=1;align=center;verticalAlign=middle;resizable=0;points=[];" vertex="1" connectable="0" parent="nK11tMXY5rMaSpCdiYOy-12">
          <mxGeometry x="0.0364" y="3" relative="1" as="geometry">
            <mxPoint x="10" y="3" as="offset" />
          </mxGeometry>
        </mxCell>
        <mxCell id="j-qPLIsldFIht5pisLqD-43" value="HelloWorld&#xa;Service" style="shape=module;align=left;spacingLeft=20;align=center;verticalAlign=top;" parent="1" vertex="1">
          <mxGeometry x="310" y="115" width="100" height="50" as="geometry" />
        </mxCell>
        <mxCell id="xrA78gVe459-WXCx-Xu2-8" style="edgeStyle=orthogonalEdgeStyle;rounded=0;orthogonalLoop=1;jettySize=auto;html=1;exitX=0.5;exitY=0;exitDx=0;exitDy=0;" parent="1" source="j-qPLIsldFIht5pisLqD-18" edge="1">
          <mxGeometry relative="1" as="geometry">
            <Array as="points">
              <mxPoint x="69" y="79.16999999999999" />
            </Array>
            <mxPoint x="189" y="79.16999999999999" as="targetPoint" />
          </mxGeometry>
        </mxCell>
        <mxCell id="xrA78gVe459-WXCx-Xu2-12" value="TextSignal" style="edgeLabel;html=1;align=center;verticalAlign=middle;resizable=0;points=[];" parent="xrA78gVe459-WXCx-Xu2-8" vertex="1" connectable="0">
          <mxGeometry x="-0.095" y="-1" relative="1" as="geometry">
            <mxPoint x="18" y="-2" as="offset" />
          </mxGeometry>
        </mxCell>
        <mxCell id="nK11tMXY5rMaSpCdiYOy-3" value="" style="endArrow=none;html=1;rounded=0;" edge="1" parent="1">
          <mxGeometry width="50" height="50" relative="1" as="geometry">
            <mxPoint x="189" y="321.16999999999996" as="sourcePoint" />
            <mxPoint x="189" y="20.169999999999987" as="targetPoint" />
          </mxGeometry>
        </mxCell>
        <mxCell id="nK11tMXY5rMaSpCdiYOy-8" value="" style="endArrow=none;html=1;rounded=0;" edge="1" parent="1">
          <mxGeometry width="50" height="50" relative="1" as="geometry">
            <mxPoint x="209" y="321.16999999999996" as="sourcePoint" />
            <mxPoint x="209" y="20" as="targetPoint" />
          </mxGeometry>
        </mxCell>
        <mxCell id="nK11tMXY5rMaSpCdiYOy-5" value="" style="sketch=0;outlineConnect=0;fontColor=#232F3E;gradientColor=none;strokeColor=#232F3E;fillColor=#ffffff;dashed=0;verticalLabelPosition=bottom;verticalAlign=top;align=center;html=1;fontSize=12;fontStyle=0;aspect=fixed;shape=mxgraph.aws4.resourceIcon;resIcon=mxgraph.aws4.queue;rotation=90;" vertex="1" parent="1">
          <mxGeometry x="169.01" y="245.17" width="60" height="60" as="geometry" />
        </mxCell>
        <mxCell id="nK11tMXY5rMaSpCdiYOy-20" value="text_out" style="text;html=1;align=center;verticalAlign=middle;whiteSpace=wrap;rounded=0;fillColor=#FFFFFF;" vertex="1" parent="1">
          <mxGeometry x="196" y="32.16999999999999" width="60" height="17" as="geometry" />
        </mxCell>
        <mxCell id="nK11tMXY5rMaSpCdiYOy-21" value="text_in" style="text;html=1;align=center;verticalAlign=middle;whiteSpace=wrap;rounded=0;fillColor=#FFFFFF;" vertex="1" parent="1">
          <mxGeometry x="144" y="32.16999999999999" width="60" height="17" as="geometry" />
        </mxCell>
        <mxCell id="nK11tMXY5rMaSpCdiYOy-25" value="&lt;font style=&quot;font-size: 14px;&quot;&gt;Event Bus&lt;/font&gt;" style="text;html=1;align=center;verticalAlign=middle;whiteSpace=wrap;rounded=0;" vertex="1" parent="1">
          <mxGeometry x="158.51999999999998" y="320" width="80.99" height="30" as="geometry" />
        </mxCell>
        <mxCell id="nK11tMXY5rMaSpCdiYOy-26" value="" style="shape=waypoint;sketch=0;fillStyle=solid;size=6;pointerEvents=1;points=[];fillColor=none;resizable=0;rotatable=0;perimeter=centerPerimeter;snapToPoint=1;" vertex="1" parent="1">
          <mxGeometry x="199.51" y="192" width="20" height="20" as="geometry" />
        </mxCell>
        <mxCell id="nK11tMXY5rMaSpCdiYOy-29" value="" style="shape=waypoint;sketch=0;fillStyle=solid;size=6;pointerEvents=1;points=[];fillColor=none;resizable=0;rotatable=0;perimeter=centerPerimeter;snapToPoint=1;" vertex="1" parent="1">
          <mxGeometry x="179.51" y="121" width="20" height="20" as="geometry" />
        </mxCell>
        <mxCell id="nK11tMXY5rMaSpCdiYOy-30" value="" style="shape=waypoint;sketch=0;fillStyle=solid;size=4;pointerEvents=1;points=[];fillColor=none;resizable=0;rotatable=0;perimeter=centerPerimeter;snapToPoint=1;" vertex="1" parent="1">
          <mxGeometry x="199.51" y="140" width="20" height="20" as="geometry" />
        </mxCell>
        <mxCell id="nK11tMXY5rMaSpCdiYOy-31" value="" style="shape=waypoint;sketch=0;fillStyle=solid;size=4;pointerEvents=1;points=[];fillColor=none;resizable=0;rotatable=0;perimeter=centerPerimeter;snapToPoint=1;" vertex="1" parent="1">
          <mxGeometry x="179.51" y="69" width="20" height="20" as="geometry" />
        </mxCell>
      </root>
    </mxGraphModel>
  </diagram>
</mxfile>
